<?xml version="1.0" encoding="UTF-8" standalone="no"?>
<!-- Created with Inkscape (http://www.inkscape.org/) -->

<svg
   width="32"
   height="32"
   viewBox="0 0 32 32"
   version="1.1"
   id="svg5"
   inkscape:version="1.2.2 (b0a8486541, 2022-12-01)"
   sodipodi:docname="greed_console_icon.svg"
   xmlns:inkscape="http://www.inkscape.org/namespaces/inkscape"
   xmlns:sodipodi="http://sodipodi.sourceforge.net/DTD/sodipodi-0.dtd"
   xmlns="http://www.w3.org/2000/svg"
   xmlns:svg="http://www.w3.org/2000/svg">
  <sodipodi:namedview
     id="namedview7"
     pagecolor="#ffffff"
     bordercolor="#000000"
     borderopacity="0.25"
     inkscape:showpageshadow="2"
     inkscape:pageopacity="0.0"
     inkscape:pagecheckerboard="0"
     inkscape:deskcolor="#d1d1d1"
     inkscape:document-units="px"
     showgrid="false"
     inkscape:zoom="22.71875"
     inkscape:cx="16"
     inkscape:cy="19.52132"
     inkscape:window-width="1355"
     inkscape:window-height="930"
     inkscape:window-x="1088"
     inkscape:window-y="460"
     inkscape:window-maximized="0"
     inkscape:current-layer="layer1" />
  <defs
     id="defs2" />
  <g
     inkscape:label="Layer 1"
     inkscape:groupmode="layer"
     id="layer1">
    <path
       sodipodi:type="star"
       style="fill:none;stroke:#000080"
       id="path229"
       inkscape:flatsided="true"
       sodipodi:sides="6"
       sodipodi:cx="0.014394558"
       sodipodi:cy="-0.027451212"
       sodipodi:r1="7.1931486"
       sodipodi:r2="6.206183"
       sodipodi:arg1="1.5654862"
       sodipodi:arg2="2.0890849"
       inkscape:rounded="0.025"
       inkscape:randomized="-3.469447e-18"
       d="M 0.05259091,7.165596 C -0.12723527,7.1665509 -6.1051288,3.757408 -6.1958689,3.6021514 c -0.09074,-0.1552566 -0.1272824,-7.0368357 -0.038196,-7.1930472 0.089086,-0.1562115 6.03043723,-3.6286477 6.21026341,-3.6296026 0.17982618,-9.549e-4 6.15771969,3.408188 6.24845979,3.5634446 0.09074,0.1552566 0.1272825,7.0368357 0.038196,7.1930472 C 6.1737682,3.6922049 0.23241709,7.1646411 0.05259091,7.165596 Z"
       transform="matrix(2.3556916,0,0,2.0880247,16.114277,15.978878)" />
    <text
       xml:space="preserve"
       style="font-size:27.2793px;fill:#ff0000;stroke:#ff0000;stroke-width:2.27328"
       x="4.6466813"
       y="26.713078"
       id="text509"
       transform="scale(1.0367046,0.96459494)"><tspan
         sodipodi:role="line"
         id="tspan507"
         x="4.6466813"
         y="26.713078"
         style="stroke-width:2.27328">G</tspan></text>
    <path
       style="fill:#800080;stroke:#ff0000;stroke-width:0.0440165"
       d="M 15.463098,29.41212 C 13.517405,28.499672 5.629632,24.511443 3.4129376,23.319297 2.7277192,22.950784 2.6866112,22.921303 2.656828,22.777041 2.5571503,22.294226 2.4682727,10.660781 2.5552255,9.4779871 L 2.5865227,9.0522599 3.3400289,8.6359302 C 5.4826726,7.4520693 9.9082414,5.1462839 13.419527,3.3843652 c 1.970616,-0.9888292 2.61644,-1.2940975 2.695702,-1.274204 0.426887,0.1071417 9.454621,4.637865 12.567338,6.3071342 l 0.952169,0.5106232 0.02857,0.4658896 c 0.0957,1.5606388 0.153318,11.4584658 0.07506,12.8935418 l -0.02722,0.499179 -0.550207,0.307923 c -2.386207,1.335442 -10.449862,5.509861 -12.487383,6.464509 l -0.448869,0.21031 z m 3.104345,-2.253883 c 2.417774,-0.253902 4.475334,-0.954575 6.396076,-2.178093 l 0.610071,-0.388617 0.01119,-4.978019 0.01119,-4.97802 h -4.842004 -4.842004 v 2.178817 2.178817 h 2.267373 2.267373 l -0.01153,1.679639 -0.01153,1.67964 -0.373205,0.125392 c -0.808171,0.271536 -1.769053,0.394513 -3.07588,0.393665 -1.381326,-8.98e-4 -2.411333,-0.172036 -3.298819,-0.54811 -0.972774,-0.412214 -1.774326,-1.132964 -2.258748,-2.031053 -0.378232,-0.701217 -0.621129,-1.483088 -0.772807,-2.487618 -0.107009,-0.708695 -0.106357,-2.496092 0.0012,-3.22717 0.376979,-2.562924 1.511472,-4.071223 3.545556,-4.71379 1.357989,-0.4289884 3.291166,-0.4904746 4.824197,-0.1534376 1.113992,0.2449118 2.284434,0.7425076 3.26417,1.3877146 0.287285,0.189192 1.67919,1.256607 2.733079,2.095927 0.0439,0.03496 0.05502,-0.542461 0.05502,-2.857704 l 2e-6,-2.9015227 -0.628938,-0.3616819 C 22.560269,5.9929248 20.375264,5.3482334 17.980743,5.1676461 17.139821,5.1042265 15.437139,5.1395417 14.688546,5.2359295 12.659408,5.4971981 11.040316,6.0634194 9.6215738,7.0079274 7.0019094,8.7519327 5.5441201,11.411394 5.2564802,14.971216 c -0.064885,0.803012 -0.028611,2.472179 0.069112,3.18027 0.3410723,2.471363 1.2713919,4.467112 2.7941729,5.99414 1.8305783,1.835685 4.2620079,2.847033 7.3960529,3.076373 0.721331,0.05278 2.244972,0.02095 3.051625,-0.06376 z"
       id="path1630" />
  </g>
</svg>
